<?xml version="1.0" encoding="utf-8"?>
<!-- Generator: Adobe Illustrator 24.3.0, SVG Export Plug-In . SVG Version: 6.00 Build 0)  -->
<svg version="1.1" id="Layer_1" xmlns="http://www.w3.org/2000/svg" xmlns:xlink="http://www.w3.org/1999/xlink" x="0px" y="0px"
	 viewBox="0 0 3010.98 1757.76" style="enable-background:new 0 0 3010.98 1757.76;" xml:space="preserve">
<style type="text/css">
	.st0{fill:#FFFFFF;}
	.st1{fill:#102770;}
	.st2{opacity:0.4;}
	.st3{opacity:0.3;}
	.st4{fill:#293856;}
	.st5{fill:#EC1C24;}
	.st6{fill:#22A7F0;}
	.st7{fill:none;stroke:#102770;stroke-width:30.4813;stroke-linecap:round;stroke-linejoin:round;stroke-miterlimit:10;}
	.st8{opacity:0.25;}
	.st9{opacity:0.2;}
</style>
<g>
	<g>
		<g>
			<polygon class="st0" points="439.39,1504.76 1933.94,935.71 1933.94,1189.65 			"/>
			<path class="st1" d="M439.39,1507.26c-1.01,0-1.96-0.61-2.34-1.61c-0.49-1.29,0.16-2.73,1.45-3.23l1494.56-569.05
				c0.77-0.29,1.63-0.19,2.31,0.28c0.68,0.47,1.08,1.24,1.08,2.06v253.95c0,1.38-1.12,2.5-2.5,2.5c-1.38,0-2.5-1.12-2.5-2.5V939.33
				L440.28,1507.09C439.98,1507.21,439.68,1507.26,439.39,1507.26z"/>
		</g>
		<g>
			<polygon class="st0" points="1933.94,935.71 1933.94,1189.65 110.52,1708.03 439.39,1504.76 			"/>
			<path class="st1" d="M110.52,1710.53c-0.97,0-1.88-0.57-2.29-1.49c-0.5-1.14-0.09-2.48,0.97-3.14l328.87-203.27
				c0.13-0.08,0.28-0.15,0.42-0.21l1494.56-569.05c0.77-0.29,1.63-0.19,2.31,0.28c0.68,0.47,1.08,1.24,1.08,2.06v253.95
				c0,1.12-0.74,2.1-1.82,2.4L111.2,1710.43C110.98,1710.5,110.75,1710.53,110.52,1710.53z M440.5,1507.01l-313.39,193.71
				l1804.33-512.95V939.33L440.5,1507.01z"/>
		</g>
		<g class="st2">
			<polygon class="st1" points="1933.94,935.71 1933.94,1189.65 110.52,1708.03 439.39,1504.76 			"/>
		</g>
		<g>
			<path class="st1" d="M118.43,1721.05c-6.48,0-12.51-3.91-15.01-10.2c-2.95-7.43-0.05-15.82,6.75-19.86l321.18-199.18
				c0.83-0.51,1.7-0.95,2.61-1.29l1489.39-567.08c5.86-2.23,12.43-1.44,17.59,2.12c5.16,3.56,8.24,9.42,8.24,15.68v248.42
				c0,6.81-4.52,12.8-11.07,14.66L122.87,1720.43c-0.04,0.01-0.08,0.02-0.11,0.03C121.32,1720.86,119.86,1721.05,118.43,1721.05z
				 M125.2,1717.5c-0.02,0.01-0.03,0.02-0.05,0.02C125.17,1717.51,125.19,1717.5,125.2,1717.5z M125.24,1717.47
				c-0.01,0-0.01,0.01-0.02,0.01C125.23,1717.48,125.23,1717.48,125.24,1717.47z M446.18,1518.48l-233.27,144.66l1705.8-485V957.82
				L446.18,1518.48z M1933.94,1189.65L1933.94,1189.65L1933.94,1189.65z"/>
		</g>
		<g>
			<path class="st0" d="M1933.94,935.71c0,0-416.74-68.15-571.38-47.18c0,0-278.99,176.48-436.25,274.33
				c-141.23,87.88-758.9,487.23-910.61,565.39c-2.04,1.05-0.65,4.11,1.49,3.32L1933.94,935.71z"/>
			<path class="st1" d="M16.52,1734.2c-1.67,0-3.22-0.97-3.94-2.6c-0.94-2.15-0.11-4.49,1.97-5.56
				c113.77-58.61,484.87-294.86,730.43-451.2c80.88-51.49,144.77-92.17,180.01-114.09c155.45-96.73,433.45-272.56,436.24-274.32
				c0.3-0.19,0.65-0.32,1-0.36c80.14-10.87,231.47,2.55,344.31,15.72c122.16,14.26,226.77,31.3,227.81,31.47
				c1.1,0.18,1.95,1.07,2.08,2.18c0.13,1.11-0.49,2.17-1.52,2.6L18.15,1733.88c-0.03,0.01-0.06,0.03-0.1,0.04
				C17.55,1734.11,17.03,1734.2,16.52,1734.2z M1363.44,890.93c-12.94,8.18-283.32,179.17-435.81,274.05
				c-35.22,21.91-99.09,62.58-179.96,114.06c-237,150.88-590.9,376.19-717.86,444.58l1895.02-786.84
				C1864.16,927.21,1503.98,872.14,1363.44,890.93z"/>
		</g>
		<g>
			<path class="st1" d="M15.71,1743.49c-5.53,0-10.86-3.01-13.56-8.26c-3.86-7.48-0.92-16.67,6.57-20.53
				c113.25-58.34,484.05-294.41,729.42-450.62c80.91-51.51,144.82-92.2,180.12-114.16c155.41-96.7,433.37-272.51,436.16-274.27
				c1.85-1.17,3.93-1.93,6.1-2.22c140.54-19.06,493.02,34.2,562.25,45.07c8.32,1.31,14,9.11,12.69,17.42
				c-1.3,8.31-9.1,13.99-17.42,12.69c-67.96-10.67-411.63-62.63-550.18-45.4c-29.89,18.9-286.47,181.1-433.5,272.59
				c-35.16,21.88-99.01,62.53-179.85,113.99c-245.83,156.51-617.34,393.02-731.83,452C20.45,1742.95,18.06,1743.49,15.71,1743.49z"
				/>
		</g>
		<g>
			<path class="st1" d="M17.2,1745.17c-5.33,0-10.39-3.16-12.56-8.38c-2.88-6.93,0.41-14.89,7.34-17.77l1904.03-790.73
				c6.94-2.88,14.89,0.41,17.77,7.34c2.88,6.93-0.41,14.89-7.34,17.77L22.41,1744.13C20.7,1744.84,18.93,1745.17,17.2,1745.17z"/>
		</g>
		<g>
			<g>
				<path class="st0" d="M1838.7,1205.94h-321.89c-58.49,0-106.34-47.85-106.34-106.34V685.73c0-58.49,47.85-106.34,106.34-106.34
					h321.89c58.49,0,106.34,47.85,106.34,106.34v413.86C1945.04,1158.08,1897.19,1205.94,1838.7,1205.94z"/>
				<path class="st1" d="M1838.7,1208.44h-321.89c-60.01,0-108.84-48.83-108.84-108.84V685.73c0-60.01,48.83-108.84,108.84-108.84
					h321.89c60.01,0,108.84,48.83,108.84,108.84v413.86C1947.54,1159.61,1898.72,1208.44,1838.7,1208.44z M1516.81,581.89
					c-57.26,0-103.84,46.58-103.84,103.84v413.86c0,57.26,46.58,103.84,103.84,103.84h321.89c57.26,0,103.84-46.58,103.84-103.84
					V685.73c0-57.26-46.58-103.84-103.84-103.84H1516.81z"/>
			</g>
			<g>
				<path class="st0" d="M1855.25,1204.64c233.49-7.32,275.17-68.79,275.17-89.47v-482.6c0-58.49-47.85-106.34-106.34-106.34
					h-344.81c-30.29,0-60.34,5.5-88.67,16.22l-109,41.26L1855.25,1204.64z"/>
			</g>
			<g>
				<path class="st1" d="M1838.7,1221.18h-321.89c-67.04,0-121.58-54.54-121.58-121.58V685.73c0-67.04,54.54-121.58,121.58-121.58
					h321.89c67.04,0,121.58,54.54,121.58,121.58v413.86C1960.28,1166.64,1905.74,1221.18,1838.7,1221.18z M1516.81,594.63
					c-50.23,0-91.1,40.87-91.1,91.1v413.86c0,50.23,40.87,91.1,91.1,91.1h321.89c50.23,0,91.1-40.87,91.1-91.1V685.73
					c0-50.23-40.87-91.1-91.1-91.1H1516.81z"/>
			</g>
			<g>
				<path class="st1" d="M1855.24,1219.88c-8.2,0-14.97-6.51-15.22-14.76c-0.26-8.41,6.34-15.45,14.76-15.71
					c122.78-3.85,186.9-22.93,219.07-38.25c34.32-16.35,41.34-32.55,41.34-35.99v-482.6c0-50.23-40.87-91.1-91.1-91.1h-344.81
					c-28.55,0-56.57,5.13-83.27,15.23l-109,41.26c-7.87,2.98-16.67-0.99-19.65-8.86c-2.98-7.87,0.99-16.67,8.86-19.65l109-41.26
					c30.16-11.42,61.81-17.21,94.06-17.21h344.81c67.04,0,121.58,54.54,121.58,121.58v482.6c0,8.34-4.23,37.55-58.71,63.5
					c-50.62,24.12-128.41,37.98-231.22,41.2C1855.57,1219.87,1855.4,1219.88,1855.24,1219.88z"/>
			</g>
			<g>
				<path class="st1" d="M1920.41,608.76l128.81-27.11c2.78-0.58,5.51,1.19,6.09,3.98c0.53,2.52-0.88,4.99-3.22,5.87l-123.14,46.52
					c-7.9,2.98-16.72-1-19.7-8.9c-2.98-7.9,1-16.72,8.9-19.7C1918.88,609.15,1919.69,608.92,1920.41,608.76z"/>
			</g>
			<g class="st3">
				<path class="st1" d="M1933.94,638.62v-17.94c0,0,172.39-59.6,173.33-54.12c0.94,5.48,19.49,38.42,19.49,38.42l3.66,502.04
					l-9.83,29.41l-120.98,53.47l-96.39,17.14v-30l34.87-42.21L1933.94,638.62z"/>
			</g>
		</g>
		<g>
			<path class="st0" d="M1171.96,1101.27c58.54-54.17,159.68-272.46,159.68-272.46l78.83,141.41c0,0-71.52,164.49-137.92,221.57
				c-53.55,46.04-166.12,58.01-223.78,23.93s-46.63-111.92,28.05-150.45c73.42-37.88,126.33-1.62,126.33-1.62L1171.96,1101.27z"/>
		</g>
		<g class="st3">
			<path class="st1" d="M1410.46,970.2c0,0-71.52,164.49-137.93,221.6c-53.53,46.03-166.08,57.99-223.77,23.93
				c-38.63-22.86-46.45-65.38-24.84-102.53c6.02,11.7,15.74,22.06,29.22,30.02c57.65,34.06,124.59,5.43,158.13-56.72
				c48.71-90.26,68.23-127.23,94.25-180.12L1410.46,970.2z"/>
		</g>
		<g>
			<path class="st1" d="M1133.39,1253.49c-32.87,0-65.05-8.5-92.37-24.65c-29.53-17.45-46.17-43.09-46.84-72.2
				c-0.82-35.47,22.61-71.47,64.27-98.75c54.37-35.6,128.22-18.6,157.53-9.62c53.44-96.25,100.87-223.42,101.37-224.76
				c2.07-5.57,7.19-9.44,13.12-9.89c5.92-0.45,11.58,2.58,14.48,7.77l78.83,141.41c2.51,4.49,2.57,9.95,0.18,14.5
				c-3.57,6.81-88.14,167.29-142.47,215.41c-38.54,34.13-82.6,54.76-127.4,59.65C1147.18,1253.12,1140.27,1253.49,1133.39,1253.49z
				 M1139.45,1066.76c-22,0-45.14,4.08-64.3,16.63c-32.66,21.39-51.07,47.84-50.5,72.55c0.43,18.46,11.45,34.59,31.87,46.66
				c48.66,28.76,128.01,35.26,204.76-32.71c44.03-38.99,114.63-167.53,131.83-199.51l-58.97-105.77
				c-18.47,46.6-56.33,137.41-97.76,209.52c-0.08,0.15-0.17,0.31-0.26,0.46c-0.9,1.57-1.8,3.11-2.7,4.66
				c-4.25,7.27-13.58,9.71-20.85,5.47c-3.06-1.79-5.27-4.48-6.48-7.54C1192.01,1072.97,1166.6,1066.76,1139.45,1066.76z"/>
		</g>
		<g>
			<path class="st1" d="M1149.96,1148.33c3-3.06,5.98-5.98,8.8-9.05c2.83-3.04,5.56-6.14,8.22-9.24
				c5.29-6.25,10.2-12.71,14.86-19.32c4.67-6.61,9-13.41,13.45-20.15l3.34-5.06l3.4-5.03c2.33-3.32,4.6-6.7,7.21-9.89l0.22-0.27
				c3.51-4.31,9.85-4.95,14.16-1.43c3.6,2.94,4.63,7.86,2.82,11.91c-1.78,3.97-3.79,7.81-6.08,11.51l-1.71,2.77
				c-0.58,0.92-1.21,1.81-1.82,2.71c-1.25,1.78-2.45,3.6-3.8,5.32c-5.2,7.01-11.21,13.46-17.59,19.51
				c-6.4,6.03-13.26,11.6-20.61,16.4c-3.71,2.37-7.44,4.65-11.38,6.58c-0.98,0.49-1.94,0.99-2.92,1.46c-0.99,0.46-2,0.89-2.99,1.33
				c-1.97,0.91-4.04,1.63-6.07,2.38c-0.76,0.28-1.59-0.1-1.87-0.86c-0.2-0.55-0.06-1.14,0.32-1.53L1149.96,1148.33z"/>
		</g>
		<g>
			<path class="st0" d="M1928.19,1236l-88.05,15.81l-575.41,103.33c-25.68-40.69-27.7-112.67-19.05-190.39
				c11.35-102.11,41.11-214.09,59.86-277.91c9.53-32.39,16.19-52.39,16.19-52.39l467.7-147.53l32.77,129.7L1928.19,1236z"/>
		</g>
		<g class="st3">
			<path class="st4" d="M1840.14,1251.81l-575.41,103.33c-25.68-40.69-27.7-112.67-19.05-190.39
				c29.72,10.36,86.95,26.37,164.79,30.52c176.11,9.37,349.01-41.91,364.14-39.59C1782.03,1156.83,1811.71,1203.96,1840.14,1251.81z
				"/>
			<path class="st1" d="M1264.72,1357.65c-0.85,0-1.65-0.43-2.11-1.17c-23.01-36.46-29.54-101.05-19.42-192
				c0.08-0.76,0.51-1.43,1.15-1.84c0.64-0.4,1.44-0.5,2.16-0.25c27.35,9.54,85.03,26.17,164.1,30.38
				c130.59,6.95,260.73-19.81,323.28-32.67c25.5-5.24,36.95-7.53,41.1-6.9c3.13,0.48,10.45,1.61,67.3,97.32
				c0.42,0.7,0.46,1.57,0.12,2.32c-0.34,0.75-1.02,1.28-1.83,1.42l-575.41,103.33C1265.02,1357.63,1264.87,1357.65,1264.72,1357.65z
				 M1247.82,1168.13c-9.38,86.97-3.28,148.94,18.14,184.25l570.19-102.39c-15.44-25.92-28.36-46.74-38.42-61.91
				c-17.75-26.76-22.5-29.68-23.53-29.93c-3.41-0.52-19.26,2.73-39.31,6.86c-62.75,12.9-193.32,39.75-324.55,32.76
				C1333.4,1193.66,1276.49,1177.88,1247.82,1168.13z"/>
		</g>
		<g>
			<path class="st1" d="M1264.73,1370.38c-5.17,0-10.06-2.63-12.89-7.11c-33.91-53.75-34.66-160.42-2.23-317.04
				c23.72-114.57,57.31-215.59,57.65-216.6c2.67-7.98,11.3-12.29,19.29-9.62c7.98,2.67,12.29,11.3,9.62,19.29
				c-0.33,0.99-33.43,100.55-56.77,213.39c-28.49,137.72-30.72,235.95-6.64,285.54l636.64-114.32l-134.78-533.23
				c-2.06-8.16,2.88-16.45,11.04-18.51c8.16-2.06,16.45,2.88,18.51,11.04l138.78,549.07c1.04,4.1,0.32,8.44-1.97,11.99
				c-2.29,3.55-5.95,5.99-10.12,6.74l-663.45,119.14C1266.53,1370.3,1265.63,1370.38,1264.73,1370.38z"/>
		</g>
		<g>
			<path class="st0" d="M2457.74,454.35l-35.35,14.61c0,0-125.06,7.77-139.66-1.46c-1.12-0.7-2.24-1.38-3.37-2.05
				c-0.03-0.03-0.07-0.09-0.1-0.09c-12.33-7.39-20.47-5.18-32.71-8.62c-0.03,0-12.44,3.43-12.69,3.44
				c-47.08-13.12-83.31-5.21-114.72,9.66c-0.03,0-0.53-5.61-0.53-5.61c-26.81,12.67-43.74,26.55-43.74,26.55l-29.24-274.58
				c0,0,2.02-3.33,6.03-8.62c3.24-4.23,7.81-9.74,13.67-15.74c0.03-0.03,0.09-0.07,0.09-0.1c0.3-0.27,0.57-0.57,0.91-0.91
				c0.06-0.1,0.15-0.17,0.24-0.24c23.11-23.21,65.27-52.83,126.29-46.61c3.08,0.31,6.19,0.71,9.35,1.24
				c16.75,2.58,34.84,7.96,54.27,16.77c5.07,2.27,8.72,2.64,12.08,2.84c3.97,0.23,7.57,0.28,12.57,3
				c39.92,22.02,100.8,8.49,143.3-8.85l23.95,212.35L2457.74,454.35z"/>
		</g>
		<g>
			<g>
				<path class="st1" d="M2368.68,268.64c2.36-7.34,4.87-14.74,4.92-22.67c-0.49-0.96-0.93-1.93-1.42-2.89
					c-2.02-1.22-3.93-2.66-6.08-3.68c-15.1-7.3-30.93-12.15-47.62-14.01c-21.76-2.43-42.71,0.25-62.31,10.48
					c-7.09,3.68-13.78,8.11-20.55,12.34c-1.82,1.15-3.12,1.52-5.07,0.11c-4.59-3.31-9.83-5.42-15.31-6.8
					c-14.7-3.63-28.89-1.49-42.78,3.8c-15.06,5.75-28.09,14.87-40.54,24.92c-5.3,4.25-4.77,10.28,1.16,13.7
					c3.75,2.11,7.51,4.2,11.27,6.32c9,5.04,17.98,10.04,26.96,15.07c-0.08,0.3-0.08,0.46-0.16,0.59c-0.12,0.17-0.24,0.37-0.41,0.53
					c-5.03,4.35-5.01,9.3-1.68,14.62c0.36,0.59,0.63,1.25,0.92,1.87c1.63,3.35,3.3,6.74,5.04,10.23c-3.69,1.83-7.25,3.3-10.54,5.28
					c-1.66,1-3.27,2.61-4.16,4.34c-1.49,2.79-0.56,6.12,1.77,8.21c2.46,2.24,5.36,2.75,8.34,1.39c3.78-1.69,7.44-3.61,11.32-5.51
					c2.34,4.82,4.56,9.38,6.8,13.9c2.57,5.15,4.8,6.39,10.47,5.97c1.04-0.11,2.05-0.13,3.25-0.18c-0.15,1.16-0.25,2.1-0.37,2.98
					c-2.09,14.01-4.23,28.03-6.23,42.02c-0.96,6.63,3.6,10.77,10.09,9.13c5.85-1.45,11.73-3.06,17.55-4.86
					c13.4-4.16,26.01-10.02,36.93-18.97c13.68-11.28,22.76-25.12,23.47-43.47c0.02-0.72,0.84-1.81,1.52-2.05
					c6.09-2.4,12.27-4.55,18.37-6.97c13.78-5.51,25.65-13.88,35.78-24.69C2353.14,305,2362.56,287.74,2368.68,268.64z
					 M2181.86,293.77c-10.39-5.84-21.15-11.89-32.21-18.1c14.82-10.55,30.02-19.31,48.4-20.62c7.94-0.57,16.61,1.35,21.32,4.46
					C2206.96,270.87,2194.53,282.22,2181.86,293.77z M2263.89,369.52c-4.62,8.45-11.48,14.7-19.42,19.92
					c-9.85,6.39-20.66,10.47-32.14,13.86c1.92-12.88,3.77-25.49,5.59-37.84c16.92-2.97,33.46-5.87,50.1-8.78
					C2267.76,361.05,2266.13,365.41,2263.89,369.52z M2338.93,295.67c-7.43,10.92-16.23,20.45-27.48,27.55
					c-8.67,5.44-18.05,9.32-27.75,12.5c-26.29,8.62-53.45,12.76-80.9,15.37c-1.34,0.11-2.1-0.11-2.7-1.44
					c-1.29-2.93-2.82-5.81-4.23-8.72c-0.1-0.17-0.09-0.41-0.19-0.91c0.77-0.4,1.58-0.78,2.4-1.19c17.04-8.39,34.15-16.74,51.2-25.15
					c4.92-2.39,6.22-7.92,2.91-11.93c-2.31-2.81-5.96-3.5-9.62-1.74c-10.25,5.01-20.47,10.02-30.7,15.06
					c-7.62,3.74-15.19,7.47-23.12,11.36c-1.75-3.55-3.46-6.82-4.92-10.19c-0.24-0.6,0.38-1.87,0.99-2.43
					c10.22-10.18,20.39-20.43,30.9-30.35c10.4-9.85,21.73-18.6,33.81-26.29c11.34-7.29,23.26-13.34,36.69-15.68
					c8.61-1.51,17.27-1.98,25.96-1.19c0.8,0.04,1.76,1.04,2.17,1.86c6.42,12.92,12.73,25.83,19.07,38.77
					c1.91,3.85,3.76,7.77,5.76,11.6C2339.75,293.7,2339.68,294.56,2338.93,295.67z M2347.19,281.05
					c-6.32-12.91-12.49-25.47-18.66-38.09c0.06-0.25,0.19-0.53,0.29-0.79c9.51,3.11,19.03,6.25,28.65,9.41
					C2355.15,262.16,2351.64,271.57,2347.19,281.05z"/>
			</g>
			<g>
				<path class="st0" d="M2339.17,292.54c-2-3.83-3.85-7.75-5.76-11.6c-6.33-12.94-12.65-25.85-19.07-38.77
					c-0.41-0.82-1.37-1.82-2.17-1.86c-8.69-0.79-17.35-0.32-25.96,1.19c-13.42,2.34-25.34,8.39-36.69,15.68
					c-12.08,7.7-23.41,16.45-33.81,26.29c-10.51,9.92-20.68,20.17-30.9,30.35c-0.61,0.56-1.23,1.83-0.99,2.43
					c1.46,3.37,3.17,6.64,4.92,10.19c7.93-3.9,15.49-7.63,23.12-11.36c10.23-5.04,20.45-10.05,30.7-15.06
					c3.66-1.76,7.31-1.06,9.62,1.74c3.31,4.01,2.01,9.54-2.91,11.93c-17.05,8.42-34.16,16.76-51.2,25.15
					c-0.82,0.41-1.64,0.79-2.4,1.19c0.09,0.49,0.09,0.73,0.19,0.91c1.41,2.92,2.94,5.79,4.23,8.72c0.6,1.33,1.36,1.55,2.7,1.44
					c27.45-2.61,54.61-6.75,80.9-15.37c9.69-3.18,19.08-7.06,27.75-12.5c11.25-7.11,20.05-16.64,27.48-27.55
					C2339.68,294.56,2339.75,293.7,2339.17,292.54z M2309.82,304.46c-13,6.26-28.56,0.98-34.82-11.85
					c-6.32-12.83-0.97-28.37,11.94-34.77c12.68-6.26,28.23-0.89,34.57,11.95C2327.77,282.55,2322.46,298.35,2309.82,304.46z"/>
			</g>
			<g>
				<path class="st5" d="M2347.19,281.04c-6.32-12.89-12.49-25.47-18.67-38.08c0.08-0.25,0.19-0.51,0.28-0.79
					c9.5,3.12,19.03,6.26,28.66,9.41C2355.16,262.15,2351.64,271.57,2347.19,281.04z"/>
			</g>
			<g>
				<path class="st5" d="M2219.38,259.51c-12.42,11.35-24.86,22.71-37.51,34.27c-10.4-5.86-21.17-11.9-32.22-18.11
					c14.83-10.56,30.03-19.33,48.4-20.62C2205.99,254.47,2214.64,256.39,2219.38,259.51z"/>
			</g>
			<g>
				<path class="st5" d="M2244.46,389.44c-9.85,6.39-20.65,10.48-32.13,13.86c1.92-12.87,3.78-25.48,5.59-37.84
					c16.92-2.97,33.46-5.86,50.11-8.79c-0.26,4.38-1.9,8.73-4.14,12.86C2259.27,377.98,2252.42,384.23,2244.46,389.44z"/>
			</g>
			<g>
				<path class="st1" d="M2321.5,269.8c-6.34-12.84-21.9-18.22-34.57-11.95c-12.91,6.4-18.26,21.94-11.94,34.77
					c6.26,12.84,21.83,18.11,34.82,11.85C2322.46,298.35,2327.77,282.55,2321.5,269.8z M2304.08,293.55
					c-6.59,3.19-14.77,0.37-18.08-6.24c-3.43-6.81-0.45-15.23,6.56-18.53c6.57-3.14,14.89-0.19,18.05,6.41
					C2313.91,282.06,2310.99,290.2,2304.08,293.55z"/>
			</g>
			<g>
				<path class="st6" d="M2304.07,293.54c-6.59,3.19-14.77,0.37-18.09-6.25c-3.42-6.8-0.44-15.21,6.56-18.52
					c6.58-3.13,14.89-0.19,18.05,6.4C2313.9,282.06,2311,290.21,2304.07,293.54z"/>
			</g>
		</g>
		<g>
			<path class="st1" d="M2074.91,505.8c-5.29,0-10.41-2.79-13.15-7.75c-4-7.24-1.39-16.35,5.84-20.36c1-0.56,24.95-13.7,63.8-23.3
				c35.68-8.81,91.49-16.23,154.73-1.51c88.09,20.5,145.79-0.47,166.15-10.19l-39.96-263.49c-39.39,12.09-106.3,21.82-162.07-3.55
				c-53.23-24.21-101.63-23.41-143.86,2.38c-31.71,19.37-47.74,45.64-47.9,45.9c-4.27,7.1-13.49,9.39-20.59,5.12
				c-7.1-4.27-9.39-13.49-5.12-20.59c0.8-1.33,20.05-32.88,57.97-56.04c35.22-21.52,93.64-39.69,171.92-4.08
				c52.01,23.66,121.78,11.05,155.98-3.2c4.26-1.78,9.1-1.49,13.13,0.78c4.02,2.27,6.78,6.26,7.47,10.82l44.26,291.86
				c0.88,5.8-1.7,11.58-6.61,14.79c-2.97,1.95-74.23,47.4-197.58,18.7c-57.02-13.27-107.46-6.69-139.73,1.17
				c-35.29,8.59-57.26,20.55-57.47,20.67C2079.84,505.2,2077.36,505.8,2074.91,505.8z"/>
		</g>
		<g>
			<path class="st0" d="M1851.28,980.58c302.17,111.17,323.86-188.64,323.86-188.64l-70.43-128.14
				c20.39,71.13-45.36,116.15-104.92,119.12c-62.7,3.12-84.14-29.16-143.35-42.94c-35.3-8.21-116.49-3.96-136.58,152.68
				L1851.28,980.58z"/>
		</g>
		<g class="st3">
			<path class="st1" d="M1892.27,751.78l-62.28-11.6c0,0-9.8,5.42-23.82,13.04l-16.75-66.3l-467.7,147.53c0,0-6.67,20-16.19,52.39
				c55.21,25.64,123.41,44.31,204.95,44.35c0.04,0,0.04,0,0.08,0h0.11c37.52-0.01,72.17-4.04,104.09-10.81
				C1797.04,883.93,1892.27,751.78,1892.27,751.78z"/>
		</g>
		<g class="st8">
			<path class="st1" d="M2175.16,791.93c0,0-21.72,299.82-323.86,188.64l45.95,133.02c-12.37-10.15-49.92,19.24-56.82,7.72
				c-23.17-38.71-37.13-71.61-44.73-99.44c-18.01-65.96,39.22-128.83,106.54-116.88c158.44,28.13,236.09-67.4,259.08-138.25
				L2175.16,791.93z"/>
		</g>
		<g>
			<path class="st1" d="M1973.61,1020.57c-38.43,0-81.04-8.56-127.59-25.69c-7.9-2.91-11.95-11.67-9.04-19.57
				c2.91-7.9,11.66-11.95,19.57-9.04c87.88,32.34,158.91,31.69,211.12-1.91c42.61-27.42,65.37-72.66,76.96-105.77
				c10.07-28.78,13.74-53.77,14.88-63.47l-40.95-74.51c-2.97,8.46-7.19,16.57-12.67,24.22c-21.99,30.74-62.35,51.17-105.33,53.31
				c-41.56,2.07-67.64-10.43-92.86-22.52c-16.08-7.71-32.71-15.68-54.7-20.79c-21.53-5.01-62.79-5.18-97.26,49.94
				c-4.46,7.14-13.87,9.3-21,4.84c-7.14-4.46-9.3-13.87-4.84-21c17.93-28.68,39.78-48.38,64.92-58.58
				c20.54-8.33,43.05-10.02,65.09-4.89c25.24,5.87,44.22,14.97,60.96,22.99c24.77,11.87,44.34,21.25,78.17,19.56
				c33.39-1.66,65.6-17.6,82.05-40.6c12.27-17.16,15.29-37.04,8.97-59.1c-2.14-7.46,1.67-15.33,8.84-18.29
				c7.17-2.95,15.42-0.05,19.16,6.75l70.43,128.14c1.42,2.58,2.06,5.51,1.85,8.44c-0.1,1.38-2.61,34.25-16.64,74.72
				c-18.83,54.32-49.74,96.56-89.38,122.13C2052.64,1010.34,2015.62,1020.57,1973.61,1020.57z"/>
		</g>
		<g>
			<path class="st0" d="M2055.58,718.77l51.83-5.52l-55.24-518.8c-1.52-14.31-14.36-24.68-28.67-23.16l0,0
				c-14.31,1.52-24.68,14.36-23.16,28.67L2055.58,718.77z"/>
			<path class="st1" d="M2055.58,721.27c-1.26,0-2.35-0.95-2.48-2.24l-55.24-518.79c-1.67-15.66,9.72-29.76,25.38-31.43
				c7.59-0.81,15.03,1.39,20.97,6.18c5.94,4.79,9.65,11.61,10.46,19.2l55.24,518.79c0.07,0.66-0.12,1.32-0.54,1.84
				c-0.42,0.52-1.02,0.84-1.68,0.92l-51.83,5.52C2055.76,721.27,2055.67,721.27,2055.58,721.27z M2026.3,173.65
				c-0.84,0-1.69,0.04-2.54,0.14c-12.92,1.38-22.31,13.01-20.93,25.92l54.97,516.31l46.86-4.99l-54.97-516.31
				c-0.67-6.26-3.73-11.88-8.63-15.84C2036.83,175.47,2031.67,173.65,2026.3,173.65z"/>
		</g>
		<g>
			<path class="st1" d="M2077.72,733.34c-7.26,0-14.26-2.46-19.99-7.09c-6.63-5.36-10.78-12.97-11.68-21.45l-53.58-503.18
				c-0.9-8.48,1.55-16.8,6.91-23.43c5.36-6.63,12.97-10.78,21.45-11.68c17.5-1.86,33.25,10.86,35.11,28.35l53.58,503.18
				c0.9,8.48-1.55,16.8-6.91,23.43c-5.36,6.63-12.97,10.78-21.45,11.68C2080.01,733.28,2078.86,733.34,2077.72,733.34z
				 M2024.21,191.33c-0.24,0-0.49,0.01-0.74,0.04c-1.84,0.2-3.49,1.09-4.65,2.53c-1.16,1.44-1.69,3.24-1.5,5.08l53.58,503.18
				c0.2,1.84,1.09,3.49,2.53,4.65c1.44,1.16,3.23,1.69,5.08,1.5l0,0c1.84-0.2,3.49-1.09,4.65-2.53c1.16-1.44,1.69-3.24,1.5-5.08
				l-53.58-503.18C2030.71,193.97,2027.7,191.33,2024.21,191.33z"/>
		</g>
		<g>
			<path class="st0" d="M2129.2,874.91c0,0-49.08,23-91.36-13.44c-42.28-36.45-52.16-138.98-35.47-181.42
				c17.9-45.54,84.14-55.27,106.1-53.45C2197.14,633.92,2198.53,839.76,2129.2,874.91z"/>
		</g>
		<g class="st8">
			<path class="st1" d="M2143.07,642.58c14.59,64.82-1.31,150.75-43.87,172.33c0,0-49.08,23-91.36-13.44
				c-1.67-1.44-3.26-3.01-4.83-4.64c7,26.56,18.48,50.55,34.83,64.64c42.28,36.45,91.36,13.44,91.36,13.44
				C2187.93,845.13,2195.9,692.91,2143.07,642.58z"/>
		</g>
		<g>
			<path class="st1" d="M2092.85,897.37c-19.4,0-42.89-5.33-64.97-24.37c-29.62-25.54-40.88-72.11-44.95-97.6
				c-6.14-38.43-4.13-77.11,5.24-100.94c9.33-23.74,30.24-42.14,60.46-53.22c22.91-8.4,47.18-11,61.08-9.85
				c39.48,3.27,68.45,37.4,79.46,93.66c6.67,34.07,5.78,72.78-2.44,106.2c-9.35,37.99-27.34,65.42-50.65,77.24
				c-0.14,0.07-0.28,0.14-0.42,0.21C2134.36,889.32,2116.69,897.37,2092.85,897.37z M2129.2,874.91L2129.2,874.91L2129.2,874.91z
				 M2103.34,641.64c-19.92,0-72.96,8.78-86.8,43.98c-14.81,37.68-4.96,133.09,31.24,164.3c33.28,28.69,71.92,12.52,74.78,11.26
				c31.45-16.29,48.94-87.76,36.7-150.27c-3.88-19.82-16.72-66.22-52.06-69.14C2106.12,641.69,2104.82,641.64,2103.34,641.64z"/>
		</g>
		<g>
			<path class="st0" d="M2554.5,1275.16l-30.86,324.73c-4.47,47.07-43.44,83.35-90.7,84.47L18.97,1742.52
				c-4.47-0.11-5.13-6.49-0.79-7.52l1084.03-269.27L2554.5,1275.16z"/>
			<path class="st1" d="M18.97,1745.02c-0.02,0-0.04,0-0.06,0c-3.27-0.08-5.79-2.4-6.13-5.65s1.64-6.04,4.82-6.8l1084-269.26
				c0.09-0.02,0.18-0.04,0.28-0.05l1452.29-190.57c0.75-0.1,1.51,0.15,2.06,0.68c0.55,0.53,0.82,1.28,0.75,2.04l-30.86,324.73
				c-4.59,48.3-44.63,85.58-93.13,86.73L19.03,1745.01C19.01,1745.02,18.99,1745.02,18.97,1745.02z M1102.68,1468.19L18.78,1737.43
				c-1,0.24-1.07,0.99-1.03,1.42c0.04,0.42,0.26,1.13,1.22,1.17l2413.91-58.16c45.97-1.08,83.92-36.42,88.27-82.2l30.56-321.61
				L1102.68,1468.19z"/>
		</g>
		<g class="st2">
			<path class="st1" d="M2554.5,1275.16l-30.86,324.73c-4.47,47.07-43.44,83.35-90.7,84.47L18.97,1742.52
				c-4.47-0.11-5.13-6.49-0.79-7.52l1084.03-269.27L2554.5,1275.16z"/>
		</g>
		<g>
			<path class="st1" d="M18.97,1757.76c-0.12,0-0.24,0-0.37,0c-9.71-0.23-17.48-7.41-18.49-17.06c-1.01-9.61,5.06-18.21,14.43-20.49
				l1083.99-269.26c0.56-0.14,1.12-0.25,1.69-0.32l1452.29-190.57c4.61-0.61,9.23,0.92,12.57,4.14c3.34,3.22,5.03,7.79,4.59,12.41
				l-30.86,324.73c-5.2,54.72-50.56,96.97-105.52,98.26L19.33,1757.75C19.21,1757.76,19.09,1757.76,18.97,1757.76z M21.72,1749.82
				c-0.01,0-0.03,0.01-0.04,0.01C21.7,1749.83,21.71,1749.82,21.72,1749.82z M1105.05,1480.73l-982.48,244.04l2310.02-55.66
				c39.53-0.93,72.16-31.31,75.9-70.67l29.05-305.69L1105.05,1480.73z"/>
		</g>
		<g>
			<g>
				<path class="st1" d="M1436.03,1233.59c-70.84,0-146.98-7.53-198.42-27.26c-7.86-3.01-11.79-11.83-8.77-19.69
					c3.02-7.86,11.83-11.78,19.69-8.77c81.74,31.36,241.45,29.85,319.98,14.96c42.95-8.14,46.17-14.64,46.17-23.61v-127.37
					c0-10.48-2.67-18.14-8.16-23.42c-7.78-7.49-22.33-11.06-42.08-10.31c-67.56,2.55-180.64,6.81-285.78-24
					c-8.08-2.37-12.71-10.83-10.34-18.91c2.37-8.08,10.84-12.71,18.91-10.34c100.38,29.41,210.35,25.27,276.06,22.79
					c28.63-1.08,50.29,5.25,64.37,18.81c11.61,11.18,17.49,26.45,17.49,45.38v127.37c0,16.74-7.34,29.62-21.81,38.28
					c-10.34,6.19-24.59,10.62-49.16,15.28C1539.68,1229.32,1489.35,1233.59,1436.03,1233.59z"/>
			</g>
		</g>
		<g>
			<g>
				<path class="st0" d="M1924.53,529.56c-2.74,26.02-8.38,51.4-16.61,75.67c-23.89,70.26-69.69,131.18-131.79,171.8
					c-62.91,41.15-151.07,77.92-265.46,77.96h-0.11c-0.04,0-0.04,0-0.08,0c-114.42-0.04-202.51-36.81-265.42-77.92
					c-11.54-7.58-22.56-15.85-32.96-24.8c-64.66-55.36-106.04-135.3-115.33-222.63c-3.16-29.57-4.69-62.6-2.9-97.5
					c0.08-2.32,0.23-4.65,0.38-6.97c0.76-12.42,1.94-25.11,3.66-37.95v-0.04c6.63-50.41,20.96-103.29,47.32-154.54
					c12.23-23.85,27.09-47.36,45-70.11C1311.89,8.02,1510.67,15.3,1510.67,15.3s198.74-7.28,320.36,147.22
					C1926.78,284.11,1935.43,427.25,1924.53,529.56z"/>
			</g>
			<g class="st3">
				<path class="st1" d="M1907.92,605.23c-23.89,70.26-69.69,131.18-131.79,171.8c-62.91,41.15-151.07,77.92-265.46,77.96h-0.11
					c-0.04,0-0.04,0-0.08,0c-114.42-0.04-202.51-36.81-265.42-77.92c-11.54-7.58-22.56-15.85-32.96-24.8
					c-64.66-55.36-106.04-135.3-115.33-222.63c-3.16-29.57-4.69-62.6-2.9-97.5c0.08-2.32,0.23-4.65,0.38-6.97
					c0.76-12.42,1.94-25.11,3.66-37.95c11.2,83.56,51.89,159.68,114.19,213.03c10.4,8.95,21.41,17.26,32.96,24.8
					c62.91,41.11,151,77.88,265.42,77.92c0.04,0,0.04,0,0.08,0h0.11c114.38-0.04,235.05-63.41,235.05-63.41s90,75,150-25
					C1896.75,621.67,1905.06,605.38,1907.92,605.23z"/>
			</g>
			<g>
				<path class="st1" d="M1761.04,539.43c-9.37,78.45-41.72,152.52-117.05,193.25c-55.63,30.14-148.52,44.96-239.7,44.92
					c-59.06-0.04-198.2-29.07-239.09-74.98c-0.04-0.04-0.04-0.04-0.08-0.08c-37.64-49.19-61.57-109.08-68.35-172.91
					c-8.88-83.18-4.84-193.37,48.47-297c106-95.98,255.97-91.1,255.97-91.1s172.79-5.64,278.56,113.89
					C1762.98,349.53,1770.52,460.25,1761.04,539.43z"/>
			</g>
			<g class="st2">
				<path class="st0" d="M1657.66,378.62c11.71-4.43,17.7-27.19,13.28-51.46c-5.29-29.08-15.34-56.6-51.59-78.45
					c-57.81-34.82-86.57,7.77-80.08,39.33c5.51,26.8,37.12,25.28,70.47,71.63C1622.63,377.58,1640.37,385.16,1657.66,378.62z"/>
				<path class="st1" d="M1645.2,385.95c-14.47,0-28.57-8.15-39.52-23.36c-16.24-22.57-31.98-33.38-44.62-42.06
					c-13.15-9.03-23.54-16.16-26.69-31.48c-3.91-19,3.84-39.69,18.84-50.3c10.18-7.2,32.65-16.05,68.72,5.68
					c38.54,23.22,48.7,53.05,53.93,81.83c4.93,27.11-2.14,51.63-16.44,57.03C1654.71,385.08,1649.94,385.95,1645.2,385.95z
					 M1655.89,373.94l1.77,4.68L1655.89,373.94c8.18-3.09,14.35-22.7,10.13-45.89c-5.56-30.59-16.07-55.07-49.26-75.06
					c-23.12-13.93-43.65-16.09-57.79-6.09c-11.86,8.39-17.95,24.89-14.82,40.13c2.34,11.36,10.38,16.89,22.55,25.25
					c13.28,9.12,29.82,20.48,47.08,44.47C1625.7,373.29,1641.04,379.56,1655.89,373.94z"/>
			</g>
			<g>
				<path class="st1" d="M1404.64,792.84c-0.12,0-0.23,0-0.35,0c-33.27-0.02-84.45-8.2-130.39-20.84
					c-40.54-11.15-94.17-30.42-119.83-58.99c-0.37-0.39-0.71-0.79-1.03-1.21c-39.67-51.84-64.36-114.27-71.41-180.56
					c-5.31-49.73-4.99-98.31,0.95-144.39c7.5-58.19,24.03-112.42,49.11-161.2c0.84-1.63,1.96-3.1,3.32-4.33
					c57.27-51.86,126.67-74.93,174.8-85.15c49.41-10.49,86.5-10.02,91.4-9.9c5.29-0.13,47.98-0.69,103.17,12.55
					c33.98,8.15,65.71,19.88,94.32,34.87c36.01,18.87,67.13,42.96,92.49,71.62c87.67,99.15,94.61,215.65,84.99,295.92
					c-5.31,44.44-17.3,83.6-35.62,116.39c-21.34,38.19-51.39,67.95-89.31,88.45C1597.19,775.36,1505.01,792.84,1404.64,792.84z
					 M1176.83,692.75c16,17.72,54.28,35.88,105.14,49.86c49.51,13.62,97.12,19.73,122.33,19.74c0.11,0,0.24,0,0.35,0
					c95.54,0,182.27-16.1,232.08-43.08c62.05-33.55,98.78-94.67,109.17-181.66c0,0,0,0,0-0.01c8.88-74.08,2.63-181.42-77.56-272.1
					c-99.86-112.85-264.99-108.8-266.65-108.75c-0.33,0.01-0.66,0.01-0.99,0c-0.35-0.01-36.89-0.99-85.41,9.41
					c-43.63,9.36-106.16,30.11-157.78,75.91c-51.91,102.62-53.49,211.99-45.6,285.93C1118.36,588.52,1140.79,645.46,1176.83,692.75z
					"/>
			</g>
			<g>
				<path class="st1" d="M1510.68,870.23h-0.12c-59.84-0.04-127.56-9.23-173.84-16.93c-53.35-8.86-101.09-39.7-130.97-84.63
					c-2.29-3.47-3.38-4.65-3.58-4.86c-18.05-15.48-34.56-32.95-49.06-51.94c-5.11-6.69-3.83-16.25,2.86-21.36
					c6.69-5.11,16.25-3.83,21.36,2.85c13.21,17.29,28.24,33.2,44.67,47.29c2.82,2.39,5.65,5.84,9.17,11.18
					c25.19,37.87,65.5,63.91,110.56,71.39c45.16,7.52,111.1,16.48,168.78,16.52h0.18c94.1-0.03,180.6-25.42,257.11-75.47
					c79.55-52.02,131.16-138.15,141.59-236.33c10.33-96.97,3.04-237.44-90.32-355.99c-59.99-76.21-140.14-110.59-196.81-126
					c-62.1-16.89-110.55-15.44-111.03-15.42c-0.3,0.01-0.61,0.01-0.91,0.01c-0.5-0.02-51.07-0.98-114.61,13.7
					c-57.81,13.36-138.66,42.82-195.51,107.33c-13.29,15.08-21.56,37.6-28.87,57.47c-4.1,11.15-7.97,21.67-12.52,30.55
					c-3.84,7.49-13.02,10.45-20.52,6.61c-7.49-3.84-10.45-13.03-6.61-20.52c3.7-7.22,7.26-16.91,11.03-27.16
					c8.23-22.38,17.55-47.75,34.61-67.11c27.66-31.38,62.52-57.83,103.63-78.59c32.59-16.46,69.17-29.41,108.7-38.48
					c64.6-14.82,115.27-14.39,120.93-14.29c5.65-0.16,54.88-0.98,118.62,16.2c38.99,10.51,75.39,25.64,108.19,44.95
					c41.16,24.24,76.69,55.15,105.61,91.89c99.71,126.61,107.61,275.48,96.68,378.07c-5.54,52.12-22.48,103.12-48.98,147.48
					c-26.73,44.73-63.46,83.16-106.24,111.13C1702.92,843.13,1610.8,870.19,1510.68,870.23z M1202.23,763.87
					c0.01,0.01,0.03,0.02,0.04,0.04C1202.26,763.9,1202.25,763.88,1202.23,763.87z M1202.12,763.77
					C1202.12,763.77,1202.12,763.77,1202.12,763.77C1202.12,763.77,1202.12,763.77,1202.12,763.77z"/>
			</g>
			<g>
				<path class="st0" d="M1897.24,578.89c0,0-32.65,0.16-66.59,0.16c-52.92,0-95.83-56.33-95.83-125.82s42.9-125.82,95.83-125.82
					c28.32,0,71.3,0,71.3,0L1897.24,578.89z"/>
				<path class="st1" d="M1830.65,581.54c-54.22,0-98.33-57.56-98.33-128.32c0-70.76,44.11-128.32,98.33-128.32h71.3
					c0.67,0,1.31,0.27,1.78,0.75c0.47,0.48,0.73,1.13,0.72,1.8l-4.71,251.49c-0.03,1.36-1.13,2.45-2.49,2.45
					C1896.92,581.39,1864.2,581.54,1830.65,581.54z M1897.24,578.89L1897.24,578.89L1897.24,578.89z M1830.65,329.9
					c-51.46,0-93.33,55.32-93.33,123.32s41.87,123.32,93.33,123.32c28.26,0,55.93-0.11,64.14-0.14l4.62-246.5H1830.65z"/>
			</g>
			<g class="st3">
				<path class="st1" d="M1897.25,578.9c0,0-32.65,0.15-66.6,0.15c-52.92,0-95.83-56.35-95.83-125.85c0-10.48,0.99-20.69,2.82-30.41
					c4.76,33.22,17.45,45,30.94,45c23.05,0,32.96-18.56,32.96-18.56l7.44,69.53L1897.25,578.9z"/>
			</g>
			<g>
				<path class="st1" d="M1830.65,594.28c-30.47,0-58.84-15.22-79.89-42.86c-20.11-26.4-31.18-61.28-31.18-98.2
					s11.07-71.8,31.18-98.2c21.05-27.64,49.42-42.86,79.89-42.86h71.3c8.42,0,15.24,6.82,15.24,15.24s-6.82,15.24-15.24,15.24h-71.3
					c-20.73,0-40.49,10.95-55.64,30.85c-16.09,21.13-24.95,49.44-24.95,79.74s8.86,58.61,24.95,79.74
					c15.15,19.89,34.91,30.85,55.64,30.85c33.51,0,66.19-0.15,66.52-0.16c0.02,0,0.05,0,0.07,0c8.38,0,15.2,6.78,15.24,15.17
					c0.04,8.42-6.75,15.27-15.17,15.31C1896.98,594.13,1864.23,594.28,1830.65,594.28z"/>
			</g>
			<g>
				<ellipse class="st0" cx="1897.31" cy="453.22" rx="95.83" ry="125.82"/>
				<path class="st1" d="M1897.31,581.54c-54.22,0-98.33-57.56-98.33-128.32c0-70.76,44.11-128.32,98.33-128.32
					s98.33,57.56,98.33,128.32C1995.64,523.98,1951.53,581.54,1897.31,581.54z M1897.31,329.9c-51.46,0-93.33,55.32-93.33,123.32
					s41.87,123.32,93.33,123.32c51.46,0,93.33-55.32,93.33-123.32S1948.77,329.9,1897.31,329.9z"/>
			</g>
			<g>
				<path class="st1" d="M1897.31,594.28c-30.47,0-58.84-15.22-79.89-42.86c-20.11-26.4-31.18-61.28-31.18-98.2
					s11.07-71.8,31.18-98.2c21.05-27.64,49.42-42.86,79.89-42.86c30.46,0,58.84,15.22,79.88,42.86
					c20.11,26.4,31.18,61.28,31.18,98.2s-11.07,71.8-31.18,98.2C1956.15,579.06,1927.78,594.28,1897.31,594.28z M1897.31,342.64
					c-20.73,0-40.49,10.95-55.64,30.85c-16.09,21.13-24.95,49.44-24.95,79.74s8.86,58.61,24.95,79.74
					c15.15,19.89,34.91,30.85,55.64,30.85c20.73,0,40.49-10.95,55.64-30.85c16.09-21.13,24.95-49.44,24.95-79.74
					s-8.86-58.61-24.95-79.74C1937.8,353.59,1918.04,342.64,1897.31,342.64z"/>
			</g>
			<g class="st3">
				<path class="st1" d="M1993.15,479.36c0,55.24-42.9,100.03-95.83,100.03s-95.83-44.79-95.83-100.03c0-14.9,3.12-29.04,8.76-41.73
					c15.13,34.37,48.43,58.24,87.06,58.24c38.64,0,71.94-23.86,87.06-58.24C1990.03,450.31,1993.15,464.46,1993.15,479.36z"/>
			</g>
			<g class="st2">
				<path class="st0" d="M1294.49,201.69c36.47-31.14,117.11-42.48,188.83-11.71c41.09,17.63,36.91,57.94,21.41,74.91
					c-15.22,16.66-35.19,10.74-64.54,4.84c-35.61-7.15-90.71-2.98-129.8-2.7c-10.98,0.08-33.33-0.76-38.13-14.91
					C1267.44,237.97,1271.91,220.98,1294.49,201.69z"/>
				<path class="st1" d="M1478.51,280.75c-9.65,0-20.35-2.21-32.2-4.65c-2.31-0.48-4.68-0.97-7.11-1.45
					c-26.42-5.31-64.41-4.23-97.92-3.28c-10.97,0.31-21.33,0.61-30.86,0.67c-24.27,0.14-38.72-5.99-42.9-18.31
					c-6.22-18.3,1.77-37.09,23.73-55.84l0,0c19.08-16.29,49.7-27.32,84.01-30.25c36.92-3.16,75.99,3.15,110.03,17.75
					c23.71,10.18,31.75,26.49,34.32,38.39c3.42,15.84-0.98,33.3-11.2,44.49C1499.82,277.67,1489.9,280.75,1478.51,280.75z
					 M1382.8,260.58c21.2,0,41.79,0.93,58.37,4.26c2.45,0.49,4.84,0.99,7.17,1.47c24.49,5.05,40.66,8.39,52.7-4.78
					c6.64-7.27,11.94-21.11,8.8-35.63c-2.07-9.6-8.7-22.82-28.49-31.31c-71.17-30.53-149.24-18.43-183.61,10.92l0,0
					c-18.54,15.83-25.52,30.98-20.75,45.02c1.79,5.28,8.89,11.52,32.42,11.53c0.31,0,0.62,0,0.94,0c9.43-0.07,19.74-0.36,30.65-0.67
					C1354.54,260.98,1368.81,260.58,1382.8,260.58z M1294.49,201.69L1294.49,201.69L1294.49,201.69z"/>
			</g>
		</g>
		<g>
			<path class="st1" d="M1634.15,1098.13c-2.37,0-3.88-0.02-4.43-0.02c-8.42-0.11-15.15-7.02-15.04-15.44
				c0.11-8.42,7.01-15.12,15.43-15.04l0,0c1.62,0.01,163.68,1.52,240.26-43.16c7.27-4.24,16.6-1.79,20.84,5.48
				c4.24,7.27,1.79,16.6-5.48,20.84C1808.41,1095.92,1662.06,1098.13,1634.15,1098.13z"/>
		</g>
		<g>
			<path class="st1" d="M1657.87,1161.34c-17.77,0-28.48-0.89-29.28-0.96c-8.39-0.73-14.6-8.11-13.87-16.5
				c0.72-8.38,8.11-14.59,16.49-13.87l0,0c0.34,0.03,34.24,2.81,82.47-1.99c44.16-4.4,109.8-16.24,171.67-47.71
				c7.5-3.82,16.68-0.83,20.49,6.68c3.82,7.5,0.83,16.68-6.68,20.49c-66.35,33.74-136.26,46.33-183.23,50.95
				C1692.73,1160.71,1672.81,1161.34,1657.87,1161.34z"/>
		</g>
		<g>
			<path class="st0" d="M2325.35,969.49c0,0,367.89,88.5,644.85,178.82c36.79,12,32.76,65.28-5.43,71.55
				c-548.87,90.12-2462.56,414.8-2946.51,515.81c-1.89,0.39-2.58-2.36-0.74-2.95L2325.35,969.49z"/>
			<path class="st1" d="M17.92,1738.21c-1.78,0-3.35-1.17-3.83-2.98c-0.56-2.12,0.59-4.22,2.67-4.89l2307.81-763.22
				c0.44-0.15,0.92-0.16,1.37-0.06c3.68,0.88,371.16,89.56,645.04,178.87c17.91,5.84,28.55,21.74,27.12,40.51
				c-1.43,18.75-14.35,32.83-32.92,35.88c-518.83,85.19-2451.7,412.53-2946.4,515.79C18.48,1738.18,18.2,1738.21,17.92,1738.21z
				 M2325.46,972.09L34.34,1729.79c519.98-106.91,2416.82-428.13,2930.03-512.4c19.7-3.23,27.79-18.9,28.74-31.33
				c0.95-12.45-4.68-29.18-23.68-35.38C2701.39,1063.28,2343.6,976.47,2325.46,972.09z"/>
		</g>
		<g>
			<path class="st1" d="M17.94,1750.95c-7.44,0-14.19-4.99-16.17-12.45c-2.28-8.59,2.54-17.47,10.97-20.25l2274.34-752.16
				c24.73-8.18,51.15-9.2,76.42-2.95c109.48,27.07,388.23,97.89,611.47,170.69c23.31,7.6,37.72,29.13,35.85,53.57
				c-1.87,24.43-19.37,43.52-43.56,47.49c-518.77,85.18-2451.38,412.48-2945.88,515.69C20.22,1750.83,19.07,1750.95,17.94,1750.95z
				 M22.31,1747.19c0,0-0.01,0-0.01,0c0.01,0,0.02-0.01,0.03-0.01L22.31,1747.19z M2330.4,989.59c-11.4,0-22.79,1.82-33.75,5.45
				L229.58,1678.64c692.81-130.99,2271.49-398.08,2732.74-473.82c12.39-2.04,17.48-11.53,18.11-19.73
				c0.63-8.21-2.96-18.38-14.91-22.27c-222.28-72.49-500.17-143.09-609.33-170.08C2347.7,990.63,2339.05,989.59,2330.4,989.59z"/>
		</g>
		<g class="st9">
			<path class="st1" d="M2457.74,454.35l-35.35,14.61c0,0-125.06,7.77-139.66-1.46c-1.12-0.7-2.24-1.38-3.37-2.05
				c-0.03-0.03-0.07-0.09-0.1-0.09c-12.33-7.39-20.47-5.18-32.71-8.62c-0.03,0-12.44,3.43-12.69,3.44
				c-47.08-13.12-83.31-5.21-114.72,9.66c-0.03,0-0.53-5.61-0.53-5.61c-26.81,12.67-43.74,26.55-43.74,26.55l-29.24-274.58
				c0,0,2.02-3.33,6.03-8.62c5.85,56.81,22.6,199.99,44.6,213.85c12.19,7.71,33.98-1.88,62.25-9.02
				c10.78-2.73,37.45-24.45,38.14-35.55l5.56-231.64l0.08-3.74c22.09,2.22,33.58,8.73,60,20.75c2.58,1.16,4.6,1.98,6.26,2.59
				c6.44,2.29,7.73,1.42,16.15,6.03l-7.67,214.8c-1.45,13.06,20.22,25.41,20.22,25.41c72.1,30.89,128.3-20.04,151.12-39.73
				L2457.74,454.35z"/>
		</g>
		<g>
			<path class="st1" d="M1596.68,200.53c-3.42,0-6.86-1.08-9.79-3.31c-7.09-5.41-8.46-15.55-3.04-22.65
				c0.82-1.07,20.45-26.56,53.85-49.23c45.07-30.59,93.95-41.52,141.33-31.61c8.73,1.83,14.33,10.39,12.51,19.12
				c-1.83,8.73-10.39,14.33-19.12,12.51c-94.1-19.69-162.2,67.92-162.88,68.81C1606.35,198.34,1601.54,200.53,1596.68,200.53z"/>
		</g>
	</g>
</g>
</svg>
