<svg xmlns="http://www.w3.org/2000/svg" baseProfile="basic" viewBox="0 0 48 48"><path fill-rule="evenodd" d="M17.999,43.507V34	c-1.657,0-3-1.347-3-3V20c0-2.76,2.239-5,5-5h8c2.76,0,5,2.24,5,5v11c0,1.653-1.344,3-3.001,3l0.001,9.507	c0,1.933-1.568,3.493-3.5,3.493c-0.967,0-1.843-0.387-2.507-1.027C23.339,46.613,22.465,47,21.499,47	C19.566,47,17.999,45.44,17.999,43.507z" clip-rule="evenodd"/><path fill-rule="evenodd" d="M23.999,3c-2.759,0-5,2.24-5,5	s2.241,5,5,5s5-2.24,5-5S26.758,3,23.999,3z" clip-rule="evenodd"/><path fill-rule="evenodd" d="M18.999,7v1h10.001V7H18.999z" clip-rule="evenodd"/><path fill="#fff" fill-rule="evenodd" d="M23.998,3	c-2.208,0-4.001,1.8-4.001,4c0,2.213,1.793,4,4.001,4c2.208,0,4.001-1.787,4.001-4C27.999,4.8,26.206,3,23.998,3z" clip-rule="evenodd"/><path fill-rule="evenodd" d="M18.997,7c0-2.76,2.24-5,5.001-5	c2.76,0,5.001,2.24,5.001,5s-2.241,5-5.001,5C21.237,12,18.997,9.76,18.997,7z M26.999,7c0-1.653-1.347-3-3.001-3	c-1.656,0-3.001,1.347-3.001,3s1.345,3,3.001,3C25.653,10,26.999,8.653,26.999,7z" clip-rule="evenodd"/><path fill="#fff" fill-rule="evenodd" d="M23.999,41.507	L23.999,41.507 M27.999,14h-8c-2.208,0-4,1.8-4,4v11c0,1.107,0.896,2,2,2c0.364,0,0.707-0.093,1.001-0.267l-0.001,10.773	c0,1.373,1.12,2.493,2.5,2.493c1.38,0,2.5-1.12,2.5-2.493c0,1.373,1.12,2.493,2.5,2.493c1.38,0,2.5-1.12,2.5-2.493l-0.001-10.773	C29.293,30.907,29.635,31,29.999,31c1.104,0,2-0.893,2-2V18C31.999,15.8,30.207,14,27.999,14z" clip-rule="evenodd"/><path fill-rule="evenodd" d="M17.999,41.507V32	c-1.657,0-3-1.347-3-3V18c0-2.76,2.239-5,5-5h8c2.76,0,5,2.24,5,5v11c0,1.653-1.344,3-3.001,3l0.001,9.507	c0,1.933-1.568,3.493-3.5,3.493c-0.967,0-1.843-0.387-2.507-1.027C23.339,44.613,22.465,45,21.499,45	C19.566,45,17.999,43.44,17.999,41.507z M22.999,41.507c0-0.333,0.124-0.587,0.312-0.747l0.22-0.12l0.107-0.067l0.361-0.067	l0.376,0.067l0.087,0.053l0.224,0.133c0.188,0.16,0.313,0.413,0.313,0.747c0,0.827,0.672,1.493,1.5,1.493	c0.827,0,1.5-0.667,1.5-1.493l-0.001-10.773c-0.001-0.773,0.835-1.253,1.5-0.867C29.645,29.96,29.815,30,29.999,30	c0.551,0,1-0.44,1-1V18c0-1.653-1.345-3-3-3h-8c-1.656,0-3,1.347-3,3v11c0,0.56,0.448,1,1,1c0.183,0,0.353-0.04,0.5-0.133	c0.665-0.387,1.501,0.093,1.5,0.867v10.773c0,0.827,0.672,1.493,1.5,1.493C22.326,43,22.999,42.333,22.999,41.507z" clip-rule="evenodd"/><path fill-rule="evenodd" d="M22.999,41V29c0-0.547,0.448-1,1-1	c0.551,0,1,0.453,1,1v12c0,0.56-0.449,1-1,1C23.447,42,22.999,41.56,22.999,41z" clip-rule="evenodd"/><path fill-rule="evenodd" d="M18.134,31.24	c-0.277-0.48-0.115-1.093,0.363-1.373c0.303-0.173,0.503-0.493,0.503-0.867v-9c0-0.547,0.448-1,1-1c0.551,0,1,0.453,1,1v9	c0,1.12-0.607,2.08-1.499,2.6C19.023,31.88,18.411,31.72,18.134,31.24z" clip-rule="evenodd"/><path fill-rule="evenodd" d="M28.497,31.6	c-0.892-0.52-1.497-1.493-1.497-2.6v-9c0-0.547,0.448-1,1-1c0.551,0,1,0.453,1,1v9c0,0.373,0.199,0.693,0.501,0.867	c0.477,0.28,0.64,0.893,0.363,1.373C29.586,31.72,28.974,31.88,28.497,31.6z" clip-rule="evenodd"/></svg>