<svg xmlns="http://www.w3.org/2000/svg" baseProfile="basic" viewBox="0 0 48 48"><path fill-rule="evenodd" d="M12.997,27.997v2.001h22.001v-2.001	H12.997z" clip-rule="evenodd"/><path fill-rule="evenodd" d="M15.997,32.997v2.001h16.001v-2.001	H15.997z" clip-rule="evenodd"/><path fill-rule="evenodd" d="M19.997,5.997v2.001h9.001V5.997	H19.997z" clip-rule="evenodd"/><path fill-rule="evenodd" d="M19.001,43.997v-8h-2	c-0.635,0-1.109-0.583-0.98-1.204l0.381-1.831l-0.476,0.036c-0.199-0.005-0.4-0.031-0.601-0.077	c-1.615-0.372-2.62-1.984-2.248-3.597l2.637-11.427c0.48-2.084,2.211-3.9,5.075-3.9h6.42c2.863,0,4.593,1.816,5.073,3.9	l2.637,11.427c0.372,1.613-0.633,3.225-2.248,3.597c-0.203,0.047-0.404,0.072-0.603,0.077l-0.476-0.036l0.383,1.831	c0.129,0.621-0.345,1.204-0.979,1.204h-1.996v8c0,1.657-1.347,3-3,3c-0.769,0-1.471-0.288-2.003-0.763	c-0.531,0.475-1.231,0.763-1.997,0.763C20.343,46.997,19.001,45.654,19.001,43.997z M19.001,7.989c0-2.761,2.237-5.008,5-5.008	c2.761,0,5,2.247,5,5.008c0,2.763-2.239,5.008-5,5.008C21.238,12.997,19.001,10.751,19.001,7.989z" clip-rule="evenodd"/><path fill-rule="evenodd" d="M13.919,15.891	c-0.416-0.072-0.741-0.397-0.815-0.813c-0.005-0.036-0.159-0.912-0.089-2.013c0.068-1.068,0.356-2.564,1.421-3.628	c1.065-1.063,2.56-1.353,3.629-1.423c1.103-0.071,1.979,0.08,2.015,0.087c0.416,0.072,0.743,0.399,0.815,0.815	c0.007,0.037,0.157,0.913,0.085,2.015c-0.069,1.069-0.361,2.564-1.427,3.627c-1.06,1.063-2.553,1.352-3.621,1.421	C14.831,16.049,13.955,15.898,13.919,15.891z" clip-rule="evenodd"/><path fill-rule="evenodd" d="M19.998,10.997v1.999h2.001v-1.999	H19.998z" clip-rule="evenodd"/><path fill="#fff" fill-rule="evenodd" d="M24.001,1.981	c-2.208,0-4,1.796-4,4.008s1.792,4.008,4,4.008s4-1.796,4-4.008S26.209,1.981,24.001,1.981z" clip-rule="evenodd"/><path fill-rule="evenodd" d="M19.001,5.989	c0-2.761,2.237-5.008,5-5.008c2.761,0,5,2.247,5,5.008c0,2.763-2.239,5.008-5,5.008C21.238,10.997,19.001,8.751,19.001,5.989z M27.001,5.989c0-1.661-1.347-3.008-3-3.008c-1.655,0-3,1.347-3,3.008c0,1.663,1.345,3.008,3,3.008	C25.654,8.997,27.001,7.651,27.001,5.989z" clip-rule="evenodd"/><path fill="#fff" fill-rule="evenodd" d="M24.001,41.997v-11	c0-1.103,0.896-2,2-2c1.103,0,2,0.897,2,2v11c0,1.104-0.897,2-2,2C24.897,43.997,24.001,43.101,24.001,41.997z" clip-rule="evenodd"/><path fill-rule="evenodd" d="M23.001,41.997v-11	c0-1.653,1.343-3,3-3c1.655,0,3,1.345,3,3v11c0,1.657-1.347,3-3,3C24.343,44.997,23.001,43.654,23.001,41.997z M27.001,41.997v-11	c0-0.549-0.451-1-1-1c-0.552,0-1,0.449-1,1v11c0,0.552,0.448,1,1,1C26.551,42.997,27.001,42.549,27.001,41.997z" clip-rule="evenodd"/><path fill="#fff" fill-rule="evenodd" d="M20.001,41.997v-11	c0-1.103,0.896-2,2-2c1.103,0,2,0.897,2,2v11c0,1.104-0.897,2-2,2C20.897,43.997,20.001,43.101,20.001,41.997z" clip-rule="evenodd"/><path fill-rule="evenodd" d="M19.001,41.997v-11	c0-1.653,1.343-3,3-3c1.655,0,3,1.345,3,3v11c0,1.657-1.347,3-3,3C20.343,44.997,19.001,43.654,19.001,41.997z M23.001,41.997v-11	c0-0.549-0.451-1-1-1c-0.552,0-1,0.449-1,1v11c0,0.552,0.448,1,1,1C22.551,42.997,23.001,42.549,23.001,41.997z" clip-rule="evenodd"/><path fill="#fff" fill-rule="evenodd" d="M30.997,32.997H17.001	l0.948-4.549c-0.248,1.076-1.323,1.747-2.399,1.499c-1.076-0.248-1.747-1.323-1.499-2.399l2.637-11.427	c0.385-1.673,1.745-3.124,4.1-3.124h6.42c2.355,0,3.715,1.451,4.1,3.124l2.637,11.427c0.248,1.076-0.423,2.151-1.499,2.399	c-1.076,0.248-2.151-0.423-2.399-1.499L30.997,32.997z" clip-rule="evenodd"/><path fill-rule="evenodd" d="M16.021,32.793l0.381-1.831	l-0.476,0.036c-0.199-0.005-0.4-0.031-0.601-0.077c-1.615-0.372-2.62-1.984-2.248-3.597l2.637-11.427	c0.48-2.084,2.211-3.9,5.075-3.9h6.42c2.863,0,4.593,1.816,5.073,3.9l2.637,11.427c0.372,1.613-0.633,3.225-2.248,3.597	c-0.203,0.047-0.404,0.072-0.603,0.077l-0.476-0.036l0.383,1.831c0.129,0.621-0.345,1.204-0.979,1.204H17.001	C16.366,33.997,15.891,33.414,16.021,32.793z M29.766,31.997l-0.697-3.344c-0.261-1.257,1.665-1.68,1.953-0.429	c0.124,0.537,0.661,0.873,1.2,0.749c0.537-0.124,0.873-0.661,0.749-1.2l-2.637-11.427c-0.291-1.263-1.28-2.349-3.125-2.349h-6.42	c-1.847,0-2.836,1.087-3.127,2.349l-2.637,11.427c-0.124,0.539,0.212,1.076,0.749,1.2c0.539,0.124,1.076-0.212,1.2-0.749	c0.288-1.251,2.215-0.828,1.953,0.429l-0.697,3.344H29.766z" clip-rule="evenodd"/><path fill-rule="evenodd" d="M17.723,29.422	c-0.537-0.124-0.873-0.661-0.749-1.199l1.949-8.451c0.124-0.537,0.661-0.873,1.199-0.749c0.537,0.124,0.873,0.661,0.749,1.199	l-1.949,8.451C18.798,29.21,18.261,29.546,17.723,29.422z" clip-rule="evenodd"/><path fill-rule="evenodd" d="M12.998,11.995v2.001h2.001v-2.001	H12.998z" clip-rule="evenodd"/><path fill="#fff" d="M19.91,7.086c0,0,0.548,3.156-1.063,4.763	c-1.601,1.604-4.756,1.056-4.756,1.056s-0.555-3.155,1.053-4.76C16.755,6.537,19.91,7.086,19.91,7.086z"/><path fill-rule="evenodd" d="M13.919,13.891	c-0.416-0.072-0.741-0.397-0.815-0.813c-0.005-0.036-0.159-0.912-0.089-2.013c0.068-1.068,0.356-2.564,1.421-3.628	c1.065-1.063,2.56-1.353,3.629-1.423c1.103-0.071,1.979,0.08,2.015,0.087c0.416,0.072,0.743,0.399,0.815,0.815	c0.007,0.037,0.157,0.913,0.085,2.015c-0.069,1.069-0.361,2.564-1.427,3.627c-1.06,1.063-2.553,1.352-3.621,1.421	C14.831,14.049,13.955,13.898,13.919,13.891z M15.805,11.981c0.909-0.059,1.795-0.297,2.335-0.839	c0.545-0.544,0.785-1.432,0.844-2.341c0.013-0.219,0.017-0.427,0.013-0.616L18.99,8.006l-0.179-0.007	c-0.189-0.004-0.397-0.001-0.616,0.012c-0.912,0.059-1.8,0.299-2.344,0.843c-0.543,0.541-0.781,1.428-0.839,2.336	c-0.015,0.22-0.017,0.428-0.013,0.617l0.007,0.18l-0.085-0.003C15.171,11.998,15.475,12.002,15.805,11.981z" clip-rule="evenodd"/><path fill-rule="evenodd" d="M29.074,28.673l-1.949-8.451	c-0.124-0.537,0.212-1.075,0.749-1.199c0.537-0.124,1.075,0.212,1.199,0.749l1.949,8.451c0.124,0.537-0.212,1.075-0.749,1.199	C29.735,29.546,29.198,29.21,29.074,28.673z" clip-rule="evenodd"/></svg>